<svg width="362" height="147" viewBox="0 0 362 147" fill="none" xmlns="http://www.w3.org/2000/svg">
<path fill-rule="evenodd" clip-rule="evenodd" d="M361.075 2.62383e-05L355.856 2.6203C350.637 5.24056 341.069 10.4811 330.626 27.5129C321.053 43.2345 310.604 70.7473 301.035 78.6081C290.596 86.4689 281.036 75.9878 270.596 86.4689C261.025 96.95 250.574 129.703 241.013 121.843C230.582 113.982 221.041 65.5068 210.608 62.8865C201.045 58.9561 190.587 103.501 181.019 108.741C170.582 113.982 161.033 81.2284 150.61 58.9561C141.055 37.9939 130.626 27.5129 121.059 30.1331C110.623 32.7534 101.05 48.475 90.6139 51.0953C81.0473 53.7155 70.6179 43.2345 61.0487 51.0953C50.6099 58.9561 41.0307 86.4689 30.5859 106.121C21.0113 124.463 10.5712 134.944 6.22071 140.184L0.999984 146.735L1.07468 2.62383e-05H6.29207C10.6399 2.62383e-05 21.0747 2.62383e-05 30.6399 2.62383e-05C41.0747 2.62383e-05 50.6399 2.62383e-05 61.0747 2.62383e-05C70.6399 2.62383e-05 81.0747 2.62383e-05 90.6399 2.62383e-05C101.075 2.62383e-05 110.64 2.62383e-05 121.075 2.62383e-05C130.64 2.62383e-05 141.075 2.62383e-05 150.64 2.62383e-05C161.075 2.62383e-05 170.64 2.62383e-05 181.075 2.62383e-05C190.64 2.62383e-05 201.075 2.62383e-05 210.64 2.62383e-05C221.075 2.62383e-05 230.64 2.62383e-05 241.075 2.62383e-05C250.64 2.62383e-05 261.075 2.62383e-05 270.64 2.62383e-05C281.075 2.62383e-05 290.64 2.62383e-05 301.075 2.62383e-05C310.64 2.62383e-05 321.075 2.62383e-05 330.64 2.62383e-05C341.075 2.62383e-05 350.64 2.62383e-05 355.857 2.62383e-05H361.075Z" fill="#E9ECEF"/>
<path fill-rule="evenodd" clip-rule="evenodd" d="M361.046 0.712426L355.828 2.64736C350.609 4.5823 341.042 8.45217 330.601 21.0293C321.03 32.6389 310.585 52.9557 301.017 58.7605C290.579 64.5653 281.018 56.8256 270.579 64.5653C261.01 72.3051 250.563 96.4918 241 90.687C230.569 84.8821 221.022 49.0858 210.588 47.1509C201.024 44.2485 190.573 77.1424 181.005 81.0123C170.569 84.8821 161.016 60.6954 150.589 44.2485C141.032 28.769 130.601 21.0293 121.035 22.9642C110.599 24.8991 101.028 36.5087 90.5923 38.4437C81.0261 40.3786 70.5952 32.6389 61.0271 38.4437C50.5893 44.2485 41.0138 64.5653 30.5716 79.0773C12.089 105.681 5.3798 28.7674 1.03 32.6373L1.04625 0.712426H6.26365C10.6115 0.712426 21.0463 0.712426 30.6115 0.712426C41.0463 0.712426 50.6115 0.712426 61.0463 0.712426C70.6115 0.712426 81.0463 0.712426 90.6115 0.712426C101.046 0.712426 110.611 0.712426 121.046 0.712426C130.611 0.712426 141.046 0.712426 150.611 0.712426C161.046 0.712426 170.611 0.712426 181.046 0.712426C190.611 0.712426 201.046 0.712426 210.611 0.712426C221.046 0.712426 230.611 0.712426 241.046 0.712426C250.611 0.712426 261.046 0.712426 270.611 0.712426C281.046 0.712426 290.611 0.712426 301.046 0.712426C310.611 0.712426 321.046 0.712426 330.611 0.712426C341.046 0.712426 350.611 0.712426 355.829 0.712426H361.046Z" fill="#FCF200" fill-opacity="0.83"/>
<path fill-rule="evenodd" clip-rule="evenodd" d="M360.981 44.9161L357.502 48.0134C354.022 51.1108 347.932 57.8217 340.976 57.8217C334.019 57.8217 327.935 51.1108 320.98 48.0134C314.025 44.9161 307.938 44.9161 300.982 41.8187C294.027 38.2051 287.943 32.0104 280.987 30.978C274.031 29.9455 267.942 34.0753 260.984 38.2051C254.025 42.8512 247.937 46.981 240.982 43.8836C234.026 40.7863 227.944 29.9455 220.987 30.978C214.03 32.0104 207.938 44.9161 200.981 45.9485C194.024 46.981 187.941 36.1402 180.988 27.8806C174.035 19.1048 167.951 12.91 160.993 16.0074C154.035 19.1048 147.943 32.0104 140.984 39.2376C134.024 46.981 127.936 49.0459 120.979 49.0459C114.023 49.0459 107.937 46.981 100.982 42.8512C94.0274 38.2051 87.9431 32.0104 80.9865 32.0104C74.03 32.0104 67.9405 38.2051 60.9852 35.1078C54.03 32.0104 47.9485 19.1048 40.9915 20.1372C34.0346 21.1697 27.9413 36.1402 20.9848 36.1402C14.0283 36.1402 7.94761 21.1697 4.47239 13.9425L0.997381 6.19911L0.999984 0.00439453L4.47824 0.00439453C7.95651 0.00439453 14.0435 0.00439453 21 0.00439453C27.9565 0.00439453 34.0435 0.00439453 41 0.00439453C47.9565 0.00439453 54.0435 0.00439453 61 0.00439453C67.9565 0.00439453 74.0435 0.00439453 81 0.00439453C87.9565 0.00439453 94.0435 0.00439453 101 0.00439453C107.957 0.00439453 114.043 0.00439453 121 0.00439453C127.957 0.00439453 134.043 0.00439453 141 0.00439453C147.957 0.00439453 154.043 0.00439453 161 0.00439453C167.957 0.00439453 174.043 0.00439453 181 0.00439453C187.957 0.00439453 194.043 0.00439453 201 0.00439453C207.957 0.00439453 214.043 0.00439453 221 0.00439453C227.957 0.00439453 234.043 0.00439453 241 0.00439453C247.957 0.00439453 254.043 0.00439453 261 0.00439453C267.957 0.00439453 274.043 0.00439453 281 0.00439453C287.957 0.00439453 294.043 0.00439453 301 0.00439453C307.957 0.00439453 314.043 0.00439453 321 0.00439453C327.957 0.00439453 334.043 0.00439453 341 0.00439453C347.957 0.00439453 354.043 0.00439453 357.522 0.00439453L361 0.00439453L360.981 44.9161Z" fill="#5FBCFA"/>
</svg>
