<svg width="450" height="147" viewBox="0 0 450 147" fill="none" xmlns="http://www.w3.org/2000/svg">
<path fill-rule="evenodd" clip-rule="evenodd" d="M450 0.269642L443.478 2.88592C436.955 5.5022 424.996 10.7354 411.933 27.7588C399.959 43.4727 386.879 70.9769 374.917 78.8303C361.868 86.683 349.933 76.1951 336.88 86.668C324.914 97.1416 311.826 129.886 299.888 122.018C286.863 114.15 274.987 65.6694 261.954 63.0414C250.01 59.104 236.904 103.639 224.946 108.873C211.901 114.105 200 81.3456 186.998 59.0662C175.079 38.0976 162.059 27.6091 150.104 30.2221C137.063 32.8344 125.088 48.5484 112.047 51.1608C100.093 53.7738 87.072 43.2852 75.1094 51.1386C62.0604 58.9914 50.0676 86.4962 37.0004 106.14C25.0217 124.474 11.9686 134.947 6.52851 140.184L-2.72335e-05 146.73L0.225562 0.000102065L6.74403 0.00400845C12.1761 0.00726377 25.213 0.0150765 37.1636 0.0222382C50.2005 0.030051 62.151 0.0372127 75.188 0.0450255C87.1385 0.0521872 100.175 0.0599999 112.126 0.0671616C125.163 0.0749744 137.113 0.0821361 150.15 0.0899489C162.101 0.0971106 175.138 0.104923 187.088 0.112085C200.125 0.119898 212.076 0.127059 225.113 0.134872C237.063 0.142034 250.1 0.149847 262.051 0.157008C275.088 0.164821 287.038 0.171983 300.075 0.179796C312.026 0.186957 325.063 0.19477 337.013 0.201932C350.05 0.209745 362.001 0.216906 375.038 0.224719C386.988 0.231881 400.025 0.239694 411.976 0.246855C425.013 0.254668 436.963 0.26183 443.482 0.265736L450 0.269642Z" fill="#E9ECEF"/>
<path fill-rule="evenodd" clip-rule="evenodd" d="M445.5 2.97987L439.088 4.9109C432.676 6.84194 420.92 10.7046 408.082 23.2736C396.314 34.8758 383.465 55.1843 371.706 60.9819C358.879 66.7789 347.141 59.0323 334.311 66.7641C322.549 74.4966 309.693 98.6748 297.952 92.8632C285.143 87.0509 273.448 51.2487 260.633 49.3061C248.887 46.3968 236.018 79.2819 224.262 83.1446C211.438 87.0067 199.725 62.8137 186.933 46.3596C175.206 30.8736 162.4 23.1264 150.647 25.0542C137.826 26.9814 126.058 38.5836 113.237 40.5108C101.484 42.4387 88.6775 34.6915 76.9185 40.4891C64.0914 46.286 52.3101 66.5951 39.4696 81.099C16.7411 107.688 8.56961 30.7722 3.22274 34.6387L3.27182 2.71485L9.68093 2.71869C15.0219 2.72189 27.8401 2.72958 39.5901 2.73662C52.4083 2.7443 64.1583 2.75134 76.9765 2.75902C88.7266 2.76606 101.545 2.77375 113.295 2.78079C126.113 2.78847 137.863 2.79551 150.681 2.80319C162.431 2.81023 175.249 2.81792 187 2.82496C199.818 2.83264 211.568 2.83968 224.386 2.84736C236.136 2.8544 248.954 2.86209 260.704 2.86913C273.522 2.87681 285.272 2.88385 298.091 2.89153C309.841 2.89857 322.659 2.90625 334.409 2.9133C347.227 2.92098 358.977 2.92802 371.795 2.9357C383.545 2.94274 396.364 2.95042 408.114 2.95747C420.932 2.96515 432.682 2.97219 439.091 2.97603L445.5 2.97987Z" fill="#FCF200" fill-opacity="0.83"/>
<path fill-rule="evenodd" clip-rule="evenodd" d="M445.871 45.1882L441.582 48.2828C437.294 51.3773 429.787 58.0834 421.219 58.078C412.651 58.0726 405.164 51.3572 396.601 48.2546C388.037 45.1519 380.541 45.1472 371.977 42.0446C363.415 38.4258 355.927 32.2266 347.361 31.1888C338.794 30.151 331.291 34.276 322.717 38.4003C314.143 43.0408 306.64 47.1658 298.076 44.0631C289.513 40.9605 282.032 30.1154 273.463 31.1424C264.893 32.1695 257.377 45.07 248.808 46.0971C240.239 47.1241 232.758 36.279 224.202 28.0143C215.647 19.2334 208.159 13.0342 199.587 16.126C191.014 19.2179 183.499 32.1185 174.92 39.34C166.341 47.0778 158.841 49.138 150.273 49.1326C141.705 49.1272 134.211 47.0577 125.65 42.9226C117.088 38.2714 109.601 32.0722 101.033 32.0668C92.465 32.0614 84.959 38.2512 76.3957 35.1486C67.8323 32.046 60.3544 19.136 51.785 20.1631C43.2157 21.1901 35.6968 36.1555 27.1289 36.1501C18.561 36.1448 11.0862 21.17 6.81285 13.9404L2.54029 6.19454L2.5494 2.38361e-05L6.83333 0.00270915C11.1173 0.00539447 18.6141 0.0100938 27.182 0.0154644C35.7499 0.020835 43.2468 0.0255343 51.8146 0.030905C60.3825 0.0362756 67.8794 0.0409749 76.4473 0.0463455C85.0151 0.0517162 92.512 0.0564155 101.08 0.0617861C109.648 0.0671568 117.145 0.0718561 125.712 0.0772267C134.28 0.0825973 141.777 0.0872966 150.345 0.0926673C158.913 0.0980379 166.41 0.102737 174.978 0.108108C183.546 0.113478 191.042 0.118178 199.61 0.123548C208.178 0.128919 215.675 0.133618 224.243 0.138989C232.811 0.14436 240.308 0.149059 248.876 0.15443C257.443 0.1598 264.94 0.164499 273.508 0.16987C282.076 0.175241 289.573 0.17994 298.141 0.185311C306.709 0.190681 314.206 0.195381 322.773 0.200751C331.341 0.206122 338.838 0.210821 347.406 0.216192C355.974 0.221562 363.471 0.226262 372.039 0.231632C380.607 0.237003 388.103 0.241702 396.671 0.247073C405.239 0.252444 412.736 0.257143 421.304 0.262514C429.872 0.267884 437.369 0.272583 441.653 0.275269L445.937 0.277954L445.871 45.1882Z" fill="#5FBCFA"/>
</svg>
