<svg width="1023" height="147" viewBox="0 0 1023 147" fill="none" xmlns="http://www.w3.org/2000/svg">
<path fill-rule="evenodd" clip-rule="evenodd" d="M1023 -1.58546e-05L1008.17 2.62498C993.348 5.24998 966.167 10.5 936.498 27.5625C909.302 43.3125 879.618 70.875 852.433 78.75C822.778 86.625 795.619 76.125 765.96 86.625C738.771 97.125 709.08 129.937 681.917 122.062C652.285 114.187 625.181 65.625 595.541 63C568.373 59.0625 538.664 103.687 511.483 108.937C481.832 114.187 454.705 81.375 425.093 59.0625C397.95 38.0625 368.321 27.5625 341.144 30.1875C311.496 32.8125 284.299 48.5625 254.652 51.1875C227.474 53.8125 197.845 43.3125 170.66 51.1875C141.005 59.0625 113.791 86.625 84.1189 106.312C56.9187 124.687 27.2595 135.187 14.9003 140.437L0.0687684 147L0.280959 -1.58546e-05H15.103C27.4546 -1.58546e-05 57.0987 -1.58546e-05 84.2724 -1.58546e-05C113.916 -1.58546e-05 141.09 -1.58546e-05 170.734 -1.58546e-05C197.908 -1.58546e-05 227.552 -1.58546e-05 254.725 -1.58546e-05C284.37 -1.58546e-05 311.543 -1.58546e-05 341.187 -1.58546e-05C368.361 -1.58546e-05 398.005 -1.58546e-05 425.179 -1.58546e-05C454.823 -1.58546e-05 481.996 -1.58546e-05 511.64 -1.58546e-05C538.814 -1.58546e-05 568.458 -1.58546e-05 595.632 -1.58546e-05C625.276 -1.58546e-05 652.449 -1.58546e-05 682.094 -1.58546e-05C709.267 -1.58546e-05 738.911 -1.58546e-05 766.085 -1.58546e-05C795.729 -1.58546e-05 822.903 -1.58546e-05 852.547 -1.58546e-05C879.72 -1.58546e-05 909.364 -1.58546e-05 936.538 -1.58546e-05C966.182 -1.58546e-05 993.356 -1.58546e-05 1008.18 -1.58546e-05H1023Z" fill="#E9ECEF"/>
<path fill-rule="evenodd" clip-rule="evenodd" d="M1022.92 0.713685L1008.09 2.65211C993.269 4.59054 966.09 8.4674 936.428 21.0672C909.237 32.6978 879.564 53.0513 852.382 58.8666C822.73 64.6819 795.567 56.9281 765.912 64.6819C738.727 72.4356 709.048 96.666 681.883 90.8507C652.247 85.0354 625.125 49.1744 595.484 47.236C568.314 44.3284 538.623 77.2817 511.443 81.1585C481.794 85.0354 454.655 60.805 425.035 44.3284C397.884 28.8209 368.251 21.0672 341.074 23.0056C311.428 24.9441 284.237 36.5746 254.59 38.5131C227.414 40.4515 197.781 32.6978 170.599 38.5131C140.946 44.3284 113.743 64.6819 84.0783 79.2201C31.5714 105.872 12.5113 28.8193 0.154033 32.6962L0.200198 0.713685H15.0222C27.3739 0.713685 57.018 0.713685 84.1916 0.713685C113.836 0.713685 141.009 0.713685 170.653 0.713685C197.827 0.713685 227.471 0.713685 254.645 0.713685C284.289 0.713685 311.462 0.713685 341.107 0.713685C368.28 0.713685 397.924 0.713685 425.098 0.713685C454.742 0.713685 481.916 0.713685 511.56 0.713685C538.733 0.713685 568.377 0.713685 595.551 0.713685C625.195 0.713685 652.369 0.713685 682.013 0.713685C709.186 0.713685 738.83 0.713685 766.004 0.713685C795.648 0.713685 822.822 0.713685 852.466 0.713685C879.64 0.713685 909.284 0.713685 936.457 0.713685C966.101 0.713685 993.275 0.713685 1008.1 0.713685H1022.92Z" fill="#FCF200" fill-opacity="0.83"/>
<path fill-rule="evenodd" clip-rule="evenodd" d="M1022.73 44.9971L1012.85 48.1001C1002.96 51.203 985.664 57.9261 965.901 57.9261C946.138 57.9261 928.854 51.203 909.095 48.1001C889.336 44.9971 872.044 44.9971 852.285 41.8942C832.526 38.2741 815.241 32.0682 795.48 31.0339C775.718 29.9996 758.421 34.1368 738.653 38.2741C718.885 42.9285 701.588 47.0658 681.829 43.9628C662.07 40.8599 644.791 29.9996 625.027 31.0339C605.263 32.0682 587.955 44.9971 568.191 46.0315C548.427 47.0658 531.148 36.2055 511.395 27.9309C491.643 19.1392 474.358 12.9333 454.591 16.0363C434.825 19.1392 417.517 32.0682 397.746 39.3084C377.974 47.0658 360.679 49.1344 340.916 49.1344C321.154 49.1344 303.864 47.0658 284.106 42.9285C264.349 38.2741 247.064 32.0682 227.301 32.0682C207.539 32.0682 190.239 38.2741 170.48 35.1711C150.721 32.0682 133.444 19.1392 113.68 20.1736C93.9162 21.2079 76.606 36.2055 56.8433 36.2055C37.0807 36.2055 19.8062 21.2079 9.93347 13.9677L0.0613731 6.21028L0.0687684 0.00437927L9.95011 0.00437927C19.8315 0.00437927 37.1238 0.00437927 56.8865 0.00437927C76.6492 0.00437927 93.9415 0.00437927 113.704 0.00437927C133.467 0.00437927 150.759 0.00437927 170.522 0.00437927C190.285 0.00437927 207.577 0.00437927 227.34 0.00437927C247.102 0.00437927 264.395 0.00437927 284.157 0.00437927C303.92 0.00437927 321.212 0.00437927 340.975 0.00437927C360.738 0.00437927 378.03 0.00437927 397.793 0.00437927C417.555 0.00437927 434.848 0.00437927 454.61 0.00437927C474.373 0.00437927 491.666 0.00437927 511.428 0.00437927C531.191 0.00437927 548.483 0.00437927 568.246 0.00437927C588.009 0.00437927 605.301 0.00437927 625.064 0.00437927C644.826 0.00437927 662.119 0.00437927 681.881 0.00437927C701.644 0.00437927 718.936 0.00437927 738.699 0.00437927C758.462 0.00437927 775.754 0.00437927 795.517 0.00437927C815.279 0.00437927 832.572 0.00437927 852.334 0.00437927C872.097 0.00437927 889.389 0.00437927 909.152 0.00437927C928.915 0.00437927 946.207 0.00437927 965.97 0.00437927C985.733 0.00437927 1003.02 0.00437927 1012.91 0.00437927L1022.79 0.00437927L1022.73 44.9971Z" fill="#5FBCFA"/>
</svg>
