<?xml version="1.0" standalone="no"?><svg xmlns="http://www.w3.org/2000/svg" viewBox="0 0 1440 320"><path fill="#0099ff" fill-opacity="1" d="M0,224L34.3,202.7C68.6,181,137,139,206,128C274.3,117,343,139,411,160C480,181,549,203,617,186.7C685.7,171,754,117,823,80C891.4,43,960,21,1029,58.7C1097.1,96,1166,192,1234,240C1302.9,288,1371,288,1406,288L1440,288L1440,0L1405.7,0C1371.4,0,1303,0,1234,0C1165.7,0,1097,0,1029,0C960,0,891,0,823,0C754.3,0,686,0,617,0C548.6,0,480,0,411,0C342.9,0,274,0,206,0C137.1,0,69,0,34,0L0,0Z" data-darkreader-inline-fill="" style="--darkreader-inline-fill:#1c6799;"></path></svg>